%TF.GenerationSoftware,KiCad,Pcbnew,8.0.6*%
%TF.CreationDate,2025-01-16T11:49:03+01:00*%
%TF.ProjectId,senec-c,73656e65-632d-4632-9e6b-696361645f70,rev?*%
%TF.SameCoordinates,Original*%
%TF.FileFunction,Copper,L2,Bot*%
%TF.FilePolarity,Positive*%
%FSLAX46Y46*%
G04 Gerber Fmt 4.6, Leading zero omitted, Abs format (unit mm)*
G04 Created by KiCad (PCBNEW 8.0.6) date 2025-01-16 11:49:03*
%MOMM*%
%LPD*%
G01*
G04 APERTURE LIST*
%TA.AperFunction,ComponentPad*%
%ADD10C,1.727200*%
%TD*%
%TA.AperFunction,ComponentPad*%
%ADD11R,1.727200X1.727200*%
%TD*%
%TA.AperFunction,ComponentPad*%
%ADD12R,1.700000X1.700000*%
%TD*%
%TA.AperFunction,ComponentPad*%
%ADD13O,1.700000X1.700000*%
%TD*%
%TA.AperFunction,ComponentPad*%
%ADD14R,2.800000X2.800000*%
%TD*%
%TA.AperFunction,Conductor*%
%ADD15C,0.200000*%
%TD*%
G04 APERTURE END LIST*
D10*
%TO.P,A1,3V3,3.3V*%
%TO.N,Net-(A1-3.3V)*%
X191825000Y-109235000D03*
%TO.P,A1,5V,5V*%
%TO.N,unconnected-(A1-Pad5V)*%
X191825000Y-83835000D03*
%TO.P,A1,A0,A0*%
%TO.N,unconnected-(A1-PadA0)*%
X191825000Y-104155000D03*
%TO.P,A1,A1,A1*%
%TO.N,unconnected-(A1-PadA1)*%
X191825000Y-101615000D03*
%TO.P,A1,A2,A2*%
%TO.N,unconnected-(A1-PadA2)*%
X191825000Y-99075000D03*
%TO.P,A1,A3,A3*%
%TO.N,unconnected-(A1-PadA3)*%
X191825000Y-96535000D03*
%TO.P,A1,A4,A4/SDA*%
%TO.N,unconnected-(A1-A4{slash}SDA-PadA4)*%
X191825000Y-93995000D03*
%TO.P,A1,A5,A5/SCL*%
%TO.N,unconnected-(A1-A5{slash}SCL-PadA5)*%
X191825000Y-91455000D03*
%TO.P,A1,A6,A6*%
%TO.N,unconnected-(A1-PadA6)*%
X191825000Y-88915000D03*
%TO.P,A1,A7,A7*%
%TO.N,unconnected-(A1-PadA7)*%
X191825000Y-86375000D03*
%TO.P,A1,B0,B0*%
%TO.N,unconnected-(A1-PadB0)*%
X191825000Y-106695000D03*
%TO.P,A1,B1,B1*%
%TO.N,unconnected-(A1-PadB1)*%
X191825000Y-81295000D03*
%TO.P,A1,D0,D0/RX*%
%TO.N,unconnected-(A1-D0{slash}RX-PadD0)*%
X176585000Y-78755000D03*
%TO.P,A1,D1,D1/TX*%
%TO.N,unconnected-(A1-D1{slash}TX-PadD1)*%
X176585000Y-76215000D03*
%TO.P,A1,D2,D2*%
%TO.N,unconnected-(A1-PadD2)*%
X176585000Y-86375000D03*
%TO.P,A1,D3,D3*%
%TO.N,unconnected-(A1-PadD3)*%
X176585000Y-88915000D03*
%TO.P,A1,D4,D4*%
%TO.N,unconnected-(A1-PadD4)*%
X176585000Y-91455000D03*
%TO.P,A1,D5,D5*%
%TO.N,unconnected-(A1-PadD5)*%
X176585000Y-93995000D03*
%TO.P,A1,D6,D6*%
%TO.N,unconnected-(A1-PadD6)*%
X176585000Y-96535000D03*
%TO.P,A1,D7,D7*%
%TO.N,Net-(J1-Pin_8)*%
X176585000Y-99075000D03*
%TO.P,A1,D8,D8*%
%TO.N,Net-(J1-Pin_7)*%
X176585000Y-101615000D03*
%TO.P,A1,D9,D9*%
%TO.N,Net-(J1-Pin_6)*%
X176585000Y-104155000D03*
%TO.P,A1,D10,D10*%
%TO.N,Net-(J1-Pin_5)*%
X176585000Y-106695000D03*
%TO.P,A1,D11,D11_MOSI*%
%TO.N,Net-(A1-D11_MOSI)*%
X176585000Y-109235000D03*
%TO.P,A1,D12,D12_MISO*%
%TO.N,unconnected-(A1-D12_MISO-PadD12)*%
X176585000Y-111775000D03*
%TO.P,A1,D13,D13_SCK*%
%TO.N,Net-(A1-D13_SCK)*%
X191825000Y-111775000D03*
D11*
%TO.P,A1,GND1,GND*%
%TO.N,Net-(J1-Pin_2)*%
X176585000Y-83835000D03*
%TO.P,A1,GND2,GND*%
%TO.N,Net-(U1-OUT-)*%
X191825000Y-78755000D03*
D10*
%TO.P,A1,RST,~{RESET}*%
%TO.N,unconnected-(A1-~{RESET}-PadRST)*%
X176585000Y-81295000D03*
%TO.P,A1,VIN,VIN*%
%TO.N,Net-(J3-Pin_1)*%
X191825000Y-76215000D03*
%TD*%
D12*
%TO.P,J3,1,Pin_1*%
%TO.N,Net-(J3-Pin_1)*%
X196500000Y-76460000D03*
D13*
%TO.P,J3,2,Pin_2*%
%TO.N,Net-(J3-Pin_2)*%
X196500000Y-79000000D03*
%TD*%
D14*
%TO.P,U1,1,VCC*%
%TO.N,unconnected-(U1-VCC-Pad1)*%
X191612500Y-44587500D03*
%TO.P,U1,2,GND*%
%TO.N,unconnected-(U1-GND-Pad2)*%
X177412500Y-44587500D03*
%TO.P,U1,3,OUT+*%
%TO.N,Net-(J3-Pin_2)*%
X191612500Y-67487500D03*
%TO.P,U1,4,OUT-*%
%TO.N,Net-(U1-OUT-)*%
X177112500Y-67487500D03*
%TO.P,U1,5,B+*%
%TO.N,Net-(J2-Pin_2)*%
X188112500Y-67487500D03*
%TO.P,U1,6,B-*%
%TO.N,Net-(J2-Pin_1)*%
X180512500Y-67487500D03*
%TD*%
D12*
%TO.P,J1,1,Pin_1*%
%TO.N,Net-(A1-3.3V)*%
X196575000Y-92695000D03*
D13*
%TO.P,J1,2,Pin_2*%
%TO.N,Net-(J1-Pin_2)*%
X196575000Y-95235000D03*
%TO.P,J1,3,Pin_3*%
%TO.N,Net-(A1-D11_MOSI)*%
X196575000Y-97775000D03*
%TO.P,J1,4,Pin_4*%
%TO.N,Net-(A1-D13_SCK)*%
X196575000Y-100315000D03*
%TO.P,J1,5,Pin_5*%
%TO.N,Net-(J1-Pin_5)*%
X196575000Y-102855000D03*
%TO.P,J1,6,Pin_6*%
%TO.N,Net-(J1-Pin_6)*%
X196575000Y-105395000D03*
%TO.P,J1,7,Pin_7*%
%TO.N,Net-(J1-Pin_7)*%
X196575000Y-107935000D03*
%TO.P,J1,8,Pin_8*%
%TO.N,Net-(J1-Pin_8)*%
X196575000Y-110475000D03*
%TD*%
D12*
%TO.P,J2,1,Pin_1*%
%TO.N,Net-(J2-Pin_1)*%
X196500000Y-84500000D03*
D13*
%TO.P,J2,2,Pin_2*%
%TO.N,Net-(J2-Pin_2)*%
X196500000Y-87040000D03*
%TD*%
D15*
%TO.N,Net-(U1-OUT-)*%
X188380000Y-78755000D02*
X191825000Y-78755000D01*
X177112500Y-67487500D02*
X188380000Y-78755000D01*
%TO.N,Net-(J1-Pin_5)*%
X180425000Y-102855000D02*
X176585000Y-106695000D01*
X196575000Y-102855000D02*
X180425000Y-102855000D01*
%TO.N,Net-(J1-Pin_6)*%
X196575000Y-105395000D02*
X194111400Y-107858600D01*
X175421400Y-105318600D02*
X176585000Y-104155000D01*
X175421400Y-107176979D02*
X175421400Y-105318600D01*
X194111400Y-107858600D02*
X176103021Y-107858600D01*
X176103021Y-107858600D02*
X175421400Y-107176979D01*
%TO.N,Net-(J1-Pin_8)*%
X198125000Y-100238654D02*
X197051346Y-99165000D01*
X193560579Y-99165000D02*
X192306979Y-97911400D01*
X177748600Y-97911400D02*
X176585000Y-99075000D01*
X196575000Y-110475000D02*
X198125000Y-108925000D01*
X197051346Y-99165000D02*
X193560579Y-99165000D01*
X198125000Y-108925000D02*
X198125000Y-100238654D01*
X192306979Y-97911400D02*
X177748600Y-97911400D01*
%TO.N,Net-(J1-Pin_7)*%
X196575000Y-107935000D02*
X197725000Y-106785000D01*
X193465000Y-101465000D02*
X192238600Y-100238600D01*
X177961400Y-100238600D02*
X176585000Y-101615000D01*
X192238600Y-100238600D02*
X177961400Y-100238600D01*
X197725000Y-106785000D02*
X197725000Y-102225000D01*
X196965000Y-101465000D02*
X193465000Y-101465000D01*
X197725000Y-102225000D02*
X196965000Y-101465000D01*
%TO.N,Net-(J3-Pin_2)*%
X191612500Y-67487500D02*
X190012500Y-67487500D01*
X189812500Y-67287500D02*
X189812500Y-67000000D01*
X190012500Y-67487500D02*
X189812500Y-67287500D01*
%TD*%
M02*
