%TF.GenerationSoftware,KiCad,Pcbnew,8.0.6*%
%TF.CreationDate,2025-01-13T22:39:12+01:00*%
%TF.ProjectId,senec-c,73656e65-632d-4632-9e6b-696361645f70,rev?*%
%TF.SameCoordinates,Original*%
%TF.FileFunction,Legend,Bot*%
%TF.FilePolarity,Positive*%
%FSLAX46Y46*%
G04 Gerber Fmt 4.6, Leading zero omitted, Abs format (unit mm)*
G04 Created by KiCad (PCBNEW 8.0.6) date 2025-01-13 22:39:12*
%MOMM*%
%LPD*%
G01*
G04 APERTURE LIST*
%ADD10C,0.150000*%
G04 APERTURE END LIST*
D10*
X178035180Y-79493094D02*
X179035180Y-79493094D01*
X179035180Y-79493094D02*
X179035180Y-79254999D01*
X179035180Y-79254999D02*
X178987561Y-79112142D01*
X178987561Y-79112142D02*
X178892323Y-79016904D01*
X178892323Y-79016904D02*
X178797085Y-78969285D01*
X178797085Y-78969285D02*
X178606609Y-78921666D01*
X178606609Y-78921666D02*
X178463752Y-78921666D01*
X178463752Y-78921666D02*
X178273276Y-78969285D01*
X178273276Y-78969285D02*
X178178038Y-79016904D01*
X178178038Y-79016904D02*
X178082800Y-79112142D01*
X178082800Y-79112142D02*
X178035180Y-79254999D01*
X178035180Y-79254999D02*
X178035180Y-79493094D01*
X179035180Y-78302618D02*
X179035180Y-78207380D01*
X179035180Y-78207380D02*
X178987561Y-78112142D01*
X178987561Y-78112142D02*
X178939942Y-78064523D01*
X178939942Y-78064523D02*
X178844704Y-78016904D01*
X178844704Y-78016904D02*
X178654228Y-77969285D01*
X178654228Y-77969285D02*
X178416133Y-77969285D01*
X178416133Y-77969285D02*
X178225657Y-78016904D01*
X178225657Y-78016904D02*
X178130419Y-78064523D01*
X178130419Y-78064523D02*
X178082800Y-78112142D01*
X178082800Y-78112142D02*
X178035180Y-78207380D01*
X178035180Y-78207380D02*
X178035180Y-78302618D01*
X178035180Y-78302618D02*
X178082800Y-78397856D01*
X178082800Y-78397856D02*
X178130419Y-78445475D01*
X178130419Y-78445475D02*
X178225657Y-78493094D01*
X178225657Y-78493094D02*
X178416133Y-78540713D01*
X178416133Y-78540713D02*
X178654228Y-78540713D01*
X178654228Y-78540713D02*
X178844704Y-78493094D01*
X178844704Y-78493094D02*
X178939942Y-78445475D01*
X178939942Y-78445475D02*
X178987561Y-78397856D01*
X178987561Y-78397856D02*
X179035180Y-78302618D01*
M02*
