M48
; DRILL file {KiCad 8.0.6} date 2025-01-13T22:39:06+0100
; FORMAT={-:-/ absolute / inch / decimal}
; #@! TF.CreationDate,2025-01-13T22:39:06+01:00
; #@! TF.GenerationSoftware,Kicad,Pcbnew,8.0.6
; #@! TF.FileFunction,Plated,1,2,PTH
FMAT,2
INCH
; #@! TA.AperFunction,Plated,PTH,ComponentDrill
T1C0.0394
; #@! TA.AperFunction,Plated,PTH,ComponentDrill
T2C0.0400
; #@! TA.AperFunction,Plated,PTH,ComponentDrill
T3C0.0606
%
G90
G05
T1
X7.7362Y-3.0102
X7.7362Y-3.1102
X7.7362Y-3.3268
X7.7362Y-3.4268
X7.7392Y-3.6494
X7.7392Y-3.7494
X7.7392Y-3.8494
X7.7392Y-3.9494
X7.7392Y-4.0494
X7.7392Y-4.1494
X7.7392Y-4.2494
X7.7392Y-4.3494
T2
X6.9522Y-3.0006
X6.9522Y-3.1006
X6.9522Y-3.2006
X6.9522Y-3.3006
X6.9522Y-3.4006
X6.9522Y-3.5006
X6.9522Y-3.6006
X6.9522Y-3.7006
X6.9522Y-3.8006
X6.9522Y-3.9006
X6.9522Y-4.0006
X6.9522Y-4.1006
X6.9522Y-4.2006
X6.9522Y-4.3006
X6.9522Y-4.4006
X7.5522Y-3.0006
X7.5522Y-3.1006
X7.5522Y-3.2006
X7.5522Y-3.3006
X7.5522Y-3.4006
X7.5522Y-3.5006
X7.5522Y-3.6006
X7.5522Y-3.7006
X7.5522Y-3.8006
X7.5522Y-3.9006
X7.5522Y-4.0006
X7.5522Y-4.1006
X7.5522Y-4.2006
X7.5522Y-4.3006
X7.5522Y-4.4006
T3
X6.9729Y-2.657
X6.9847Y-1.7554
X7.1068Y-2.657
X7.406Y-2.657
X7.5438Y-1.7554
X7.5438Y-2.657
M30
